# AST/ASF file generated using VICON BodyLanguage
# -----------------------------------------------
:version 1.10
:name VICON
:units
  mass 1.0
  length 0.45
  angle deg
:documentation
   .ast/.asf automatically generated from VICON data using
   VICON BodyBuilder and BodyLanguage model FoxedUp or BRILLIANT.MOD
:root
   order TX TY TZ RX RY RZ
   axis XYZ
   position 0 0 0  
   orientation 0 0 0 
:bonedata
  begin
     id 1 
     name lhipjoint
     direction 0.660183 -0.676772 0.325788 
     length 2.75133 
     axis 0 0 0  XYZ
  end
  begin
     id 2 
     name lfemur
     direction 0.34202 -0.939693 0  
     length 7.70317  
     axis 0 0 20  XYZ
    dof rx ry rz
    limits (-160.0 20.0)
           (-70.0 70.0)
           (-60.0 70.0)
  end
  begin
     id 3 
     name ltibia
     direction 0.342105 -0.939662 0   
     length 7.18701   
     axis 0 0 20   XYZ
    dof rx
    limits (-10.0 170.0)
  end
  begin
     id 4 
     name lfoot
     direction 0.14163 -0.389126 0.910232   
     length 2.41719   
     axis -90 7.62852e-016 20   XYZ
    dof rx rz
    limits (-45.0 90.0)
           (-70.0 20.0)
  end
  begin
     id 5 
     name ltoes
     direction 1.53533e-011 -4.21926e-011 1   
     length 1.18611   
     axis -90 7.62852e-016 20   XYZ
    dof rx
    limits (-90.0 20.0)
  end
  begin
     id 6 
     name rhipjoint
     direction -0.6658 -0.67229 0.323631   
     length 2.76968  
     axis 0 0 0  XYZ 
  end
  begin
     id 7 
     name rfemur
     direction -0.34202 -0.939693 0   
     length 7.92547   
     axis 0 0 -20   XYZ
    dof rx ry rz
    limits (-160.0 20.0)
           (-70.0 70.0)
           (-70.0 60.0)
  end
  begin
     id 8 
     name rtibia
     direction -0.342022 -0.939692 0   
     length 7.22641   
     axis 0 0 -20   XYZ
    dof rx
    limits (-10.0 170.0)
 end
 begin
     id 9 
     name rfoot
     direction -0.105675 -0.29034 0.951071   
     length 2.48149  
     axis -90 -7.62852e-016 -20   XYZ
    dof rx rz
    limits (-45.0 90.0)
           (-20.0 70.0)
  end
  begin
     id 10 
     name rtoes
     direction -1.5349e-011 -4.21859e-011 1   
     length 1.23343   
     axis -90 -7.62852e-016 -20   XYZ
    dof rx
    limits (-90.0 20.0)
  end
  begin
     id 11 
     name lowerback
     direction 0.0104173 0.993624 -0.112266   
     length 2.00527   
     axis 0 0 0   XYZ
    dof rx ry rz
    limits (-20.0 45.0)
           (-30.0 30.0)
           (-30.0 30.0)
  end
  begin
     id 12 
     name upperback
     direction 0.00733149 0.999856 -0.0152913   
     length 2.01385   
     axis 0 0 0   XYZ
    dof rx ry rz
    limits (-20.0 45.0)
           (-30.0 30.0)
           (-30.0 30.0)
  end
  begin
     id 13 
     name thorax
     direction 0.0026304 0.999318 0.036841   
     length 2.03734   
     axis 0 0 0   XYZ
    dof rx ry rz
    limits (-20.0 45.0)
           (-30.0 30.0)
           (-30.0 30.0)
  end
  begin
     id 14 
     name lowerneck
     direction 0.0293154 0.998757 0.0403082   
     length 1.65303   
     axis 0 0 0   XYZ
    dof rx ry rz
    limits (-20.0 45.0)
           (-30.0 30.0)
           (-30.0 30.0)
  end
  begin
     id 15 
     name upperneck
     direction -0.0376619 0.998184 -0.0470083   
     length 1.60926   
     axis 0 0 0   XYZ
    dof rx ry rz
    limits (-20.0 45.0)
           (-30.0 30.0)
           (-30.0 30.0)
  end
  begin
     id 16
     name head
     direction -0.0170133 0.999635 -0.0209778  
     length 1.73625  
     axis 0 0 0   XYZ
    dof rx ry rz
    limits (-20.0 45.0)
           (-30.0 30.0)
           (-30.0 30.0)
  end
  begin
     id 17 
     name lclavicle
     direction 0.919857 0.39181 -0.0186333  
     length 3.75313  
     axis 0 0 0   XYZ
    dof ry rz
    limits (-20.0 10.0)
           (0.0 20.0)
  end
  begin
     id 18 
     name lhumerus
     direction 1 -4.48988e-011 1.44029e-027   
     length 5.49313   
     axis 180 -30 -90   XYZ
    dof rx ry rz
    limits (-60.0 90.0)
           (-90.0 90.0)
           (-90.0 90.0)
  end
  begin
     id 19
     name lradius
     direction 1 -4.48924e-011 7.46281e-027   
     length 3.29037   
     axis 180 -30 -90   XYZ
    dof rx
    limits (-10.0 170.0)
  end
  begin
     id 20
     name lwrist
     direction 1 -4.48955e-011 2.19879e-026   
     length 1.64519   
     axis -1.34358e-014 90 90   XYZ
    dof ry
    limits (-180.0 0.0)
 end
  begin
     id 21 
     name lhand
     direction 1 -4.48978e-011 4.39747e-026   
     length 0.729656   
     axis -2.80598e-014 90 90   XYZ
    dof rx rz
    limits (-90.0 90.0)
           (-45.0 45.0)
  end
  begin
     id 22 
     name lfingers
     direction 1 -4.49071e-011 8.79411e-026   
     length 0.588268   
     axis -5.61193e-014 90 90   XYZ
    dof rx
    limits (0.0 90.0)
  end
  begin
     id 23
     name lthumb
     direction 0.707107 -6.34817e-011 0.707107   
     length 0.844638   
     axis -90 45 -9.86923e-015   XYZ
    dof rx rz
    limits (-45.0 45.0)
           (-45.0 45.0)
  end
  begin
     id 24 
     name rclavicle
     direction -0.919898 0.388279 0.0550233   
     length 3.7171  
     axis 0 0 0   XYZ 
    dof ry rz
    limits (-10.0 20.0)
           (-20.0 0.0)
  end
  begin
     id 25 
     name rhumerus
     direction -1 -4.48968e-011 9.98372e-028  
     length 5.23684   
     axis 180 30 90   XYZ
    dof rx ry rz
    limits (-90.0 60.0)
           (-90.0 90.0)
           (-90.0 90.0)
  end
  begin
     id 26 
     name rradius
     direction -1 -4.48956e-011 1.01023e-026   
     length 3.38251   
     axis 180 30 90   XYZ
    dof rx
    limits (-10.0 170.0)
  end
  begin
     id 27 
     name rwrist
     direction -1 -4.4892e-011 2.19886e-026   
     length 1.69126   
     axis -1.34358e-014 -90 -90   XYZ
    dof ry
    limits (-180.0 0.0)
  end
  begin
     id 28
     name rhand
     direction -1 -4.49024e-011 4.39727e-026   
     length 0.691454   
     axis -2.80598e-014 -90 -90   XYZ
    dof rx rz
    limits (-90.0 90.0)
           (-45.0 45.0)
  end
  begin
     id 29
     name rfingers
     direction -1 -4.49097e-011 8.79388e-026   
     length 0.557468   
     axis -5.61193e-014 -90 -90   XYZ
    dof rx
    limits (0.0 90.0)
  end
  begin
     id 30
     name rthumb
     direction -0.707107 -6.34938e-011 0.707107   
     length 0.800416   
     axis -90 -45 9.86923e-015   XYZ
    dof rx rz
    limits (-45.0 45.0)
           (-45.0 45.0)
  end
:hierarchy
  begin
    root lhipjoint rhipjoint lowerback
    lhipjoint lfemur
    lfemur ltibia
    ltibia lfoot
    lfoot ltoes
    rhipjoint rfemur
    rfemur rtibia
    rtibia rfoot
    rfoot rtoes
    lowerback upperback
    upperback thorax
    thorax lowerneck lclavicle rclavicle
    lowerneck upperneck
    upperneck head
    lclavicle lhumerus
    lhumerus lradius
    lradius lwrist
    lwrist lhand lthumb
    lhand lfingers
    rclavicle rhumerus
    rhumerus rradius
    rradius rwrist
    rwrist rhand rthumb
    rhand rfingers
  end

#!OML:ASF H:\BabyWalks\Project 1\Capture day 1\Session 1\baby.ASF
:FULLY-SPECIFIED
:DEGREES
207
root -32.5677 17.3351 -2.35998 -17.821 84.195 -25.8139
lowerback 16.399 1.05435 -7.14263
upperback 5.57886 0.491883 -1.91187
thorax -3.24413 0.353404 1.91691
lowerneck -4.71091 -2.30186 2.00777
upperneck -0.339525 -3.17724 8.15111
head 0.804263 -1.44542 2.15264
rclavicle 7.95139e-015 3.81667e-014
rhumerus -48.9929 12.8137 -88.4666
rradius 45.4651
rwrist -5.06616
rhand -12.4064 -15.6752
rfingers 7.12502
rthumb 13.6653 -45.2065
lclavicle 7.95139e-015 3.81667e-014
lhumerus -40.2282 -2.46152 73.9517
lradius 57.4855
lwrist 2.7345
lhand -3.78208 8.77078
lfingers 7.12502
lthumb 21.9632 37.5439
rfemur -19.0532 4.86146 15.9491
rtibia 60.4473
rfoot -19.4043 14.5142
rtoes -18.8928
lfemur -14.8496 -1.71637 -17.7723
ltibia 37.5922
lfoot -31.2748 -13.5234
ltoes 5.7902
208
root -32.4709 17.3566 -2.36226 -18.4026 84.2403 -26.3968
lowerback 16.4189 0.986758 -7.05931
upperback 5.53749 0.411997 -1.80976
thorax -3.29333 0.314055 1.99299
lowerneck -4.96076 -2.36325 1.95445
upperneck 0.265231 -3.31957 8.3038
head 1.04919 -1.4868 2.2066
rclavicle -1.98785e-014 -9.54166e-015
rhumerus -49.0505 12.6197 -88.4134
rradius 45.1725
rwrist -4.73851
rhand -12.4009 -15.7348
rfingers 7.12502
rthumb 13.6706 -45.2658
lclavicle -1.98785e-014 -9.54166e-015
lhumerus -39.7877 -2.40807 73.8946
lradius 57.5949
lwrist 2.77596
lhand -4.11378 8.77865
lfingers 7.12502
lthumb 21.6447 37.5888
rfemur -19.704 4.84067 15.9114
rtibia 60.4875
rfoot -20.031 14.903
rtoes -19.0937
lfemur -14.1876 -1.77885 -17.7613
ltibia 36.9356
lfoot -31.0403 -13.6281
ltoes 5.48622
209
root -32.3727 17.3798 -2.36373 -18.9158 84.2853 -26.9161
lowerback 16.4364 0.923466 -6.97904
upperback 5.49349 0.337665 -1.69783
thorax -3.34442 0.277356 2.08021
lowerneck -5.21162 -2.42564 1.92076
upperneck 0.856721 -3.46386 8.40285
head 1.29069 -1.52986 2.24004
rclavicle 4.77083e-015 3.18055e-015
rhumerus -49.1155 12.44 -88.3534
rradius 44.8774
rwrist -4.36914
rhand -12.3357 -15.7903
rfingers 7.12502
rthumb 13.7335 -45.3171
lclavicle 4.77083e-015 3.18055e-015
lhumerus -39.3801 -2.34053 73.8549
lradius 57.7337
lwrist 2.85229
lhand -4.49097 8.80694
lfingers 7.12502
lthumb 21.2824 37.6584
rfemur -20.329 4.8431 15.8861
rtibia 60.3608
rfoot -20.5841 15.2605
rtoes -19.1275
lfemur -13.5137 -1.84354 -17.7538
ltibia 36.2505
lfoot -30.7769 -13.7337
ltoes 5.16238
210
root -32.2731 17.4049 -2.36457 -19.325 84.3286 -27.3358
lowerback 16.4552 0.864105 -6.90362
upperback 5.44718 0.26787 -1.57721
thorax -3.39896 0.242903 2.17854
lowerneck -5.4628 -2.4871 1.91107
upperneck 1.42313 -3.60595 8.43871
head 1.52399 -1.57352 2.24879
rclavicle -4.77083e-015 1.27222e-014
rhumerus -49.1894 12.2835 -88.2881
rradius 44.592
rwrist -3.97678
rhand -12.197 -15.8548
rfingers 7.12502
rthumb 13.8671 -45.3725
lclavicle -4.77083e-015 1.27222e-014
lhumerus -39.0152 -2.26779 73.8352
lradius 57.9145
lwrist 2.97854
lhand -4.88482 8.90567
lfingers 7.12502
lthumb 20.9041 37.7994
rfemur -20.9422 4.87204 15.8673
rtibia 60.0991
rfoot -21.0588 15.594
rtoes -19.0942
lfemur -12.8416 -1.90821 -17.7538
ltibia 35.5695
lfoot -30.4902 -13.8381
ltoes 4.82397
211
root -32.1722 17.4313 -2.36424 -19.5771 84.3782 -27.6023
lowerback 16.4669 0.809102 -6.85164
upperback 5.40534 0.201816 -1.44629
thorax -3.4449 0.209909 2.30041
lowerneck -5.71313 -2.54542 1.92905
upperneck 1.95101 -3.74111 8.40515
head 1.74359 -1.61649 2.22992
rclavicle -1.03368e-014 -1.43125e-014
rhumerus -49.2626 12.1497 -88.21
rradius 44.315
rwrist -3.56245
rhand -11.9832 -15.8901
rfingers 7.12502
rthumb 14.0732 -45.3936
lclavicle -1.03368e-014 -1.43125e-014
lhumerus -38.6926 -2.19647 73.8399
lradius 58.1454
lwrist 3.1589
lhand -5.31363 9.0644
lfingers 7.12502
lthumb 20.492 38.003
rfemur -21.5291 4.92116 15.8492
rtibia 59.6915
rfoot -21.4789 15.8717
rtoes -19.0911
lfemur -12.157 -1.96743 -17.7665
ltibia 34.8536
lfoot -30.1416 -13.9611
ltoes 4.50677
212
root -32.072 17.4505 -2.36255 -19.5875 84.4307 -27.6348
lowerback 16.481 0.7545 -6.81975
upperback 5.35767 0.132671 -1.31412
thorax -3.49763 0.175642 2.43558
lowerneck -5.95593 -2.59527 1.97341
upperneck 2.44285 -3.86136 8.30626
head 1.94841 -1.65514 2.18511
rclavicle 1.03368e-014 4.13472e-014
rhumerus -49.349 12.0468 -88.1343
rradius 44.0517
rwrist -3.1325
rhand -11.6944 -15.8884
rfingers 7.12502
rthumb 14.3515 -45.3724
lclavicle 1.03368e-014 4.13472e-014
lhumerus -38.4368 -2.13266 73.8564
lradius 58.4387
lwrist 3.39644
lhand -5.74494 9.24224
lfingers 7.12502
lthumb 20.0775 38.2249
rfemur -22.1277 4.99191 15.8188
rtibia 59.1761
rfoot -21.8583 16.097
rtoes -19.0707
lfemur -11.4847 -2.01048 -17.7969
ltibia 34.129
lfoot -29.7388 -14.1039
ltoes 4.2007
213
root -31.9679 17.4795 -2.36014 -19.3848 84.4908 -27.4642
lowerback 16.4927 0.697083 -6.80664
upperback 5.30565 0.0569486 -1.18106
thorax -3.55263 0.138275 2.58365
lowerneck -6.19365 -2.63448 2.04787
upperneck 2.89833 -3.96353 8.13908
head 2.13803 -1.6882 2.11273
rclavicle -1.15295e-014 6.36111e-015
rhumerus -49.4551 11.9816 -88.0651
rradius 43.8272
rwrist -2.71434
rhand -11.3271 -15.8654
rfingers 7.12502
rthumb 14.7054 -45.3239
lclavicle -1.15295e-014 6.36111e-015
lhumerus -38.2505 -2.08458 73.882
lradius 58.7981
lwrist 3.68852
lhand -6.17762 9.44951
lfingers 7.12502
lthumb 19.6616 38.4752
rfemur -22.6854 5.0865 15.7797
rtibia 58.5017
rfoot -22.1739 16.2928
rtoes -18.9532
lfemur -10.7961 -2.04285 -17.847
ltibia 33.3732
lfoot -29.2823 -14.2636
ltoes 3.92529
214
root -31.8623 17.5085 -2.35658 -19.0061 84.5617 -27.1273
lowerback 16.5027 0.634165 -6.80944
upperback 5.24855 -0.0285283 -1.04664
thorax -3.6106 0.0963042 2.74418
lowerneck -6.42276 -2.66022 2.14448
upperneck 3.31714 -4.04282 7.91105
head 2.31163 -1.71356 2.0169
rclavicle 7.15625e-015 7.95139e-015
rhumerus -49.5798 11.9532 -88.0009
rradius 43.643
rwrist -2.32229
rhand -10.8791 -15.8279
rfingers 7.12502
rthumb 15.137 -45.2544
lclavicle 7.15625e-015 7.95139e-015
lhumerus -38.1354 -2.06044 73.9154
lradius 59.2179
lwrist 4.03051
lhand -6.59959 9.66942
lfingers 7.12502
lthumb 19.2559 38.7361
rfemur -23.2174 5.19325 15.7323
rtibia 57.7038
rfoot -22.4603 16.4389
rtoes -18.8518
lfemur -10.1156 -2.0637 -17.9117
ltibia 32.6138
lfoot -28.7858 -14.4407
ltoes 3.63183
215
root -31.7553 17.5368 -2.35207 -18.453 84.6393 -26.6316
lowerback 16.5113 0.563569 -6.81784
upperback 5.18096 -0.125778 -0.915313
thorax -3.67745 0.0489976 2.90705
lowerneck -6.64219 -2.6715 2.26347
upperneck 3.70655 -4.09828 7.62804
head 2.4714 -1.73049 1.8997
rclavicle 5.96354e-015 1.27222e-014
rhumerus -49.7198 11.9576 -87.9487
rradius 43.4841
rwrist -1.95462
rhand -10.3703 -15.7871
rfingers 7.12502
rthumb 15.6271 -45.1759
lclavicle 5.96354e-015 1.27222e-014
lhumerus -38.0958 -2.06538 73.9491
lradius 59.697
lwrist 4.41835
lhand -7.01006 9.90145
lfingers 7.12502
lthumb 18.8611 39.007
rfemur -23.7207 5.30983 15.677
rtibia 56.7672
rfoot -22.7226 16.5178
rtoes -18.8338
lfemur -9.4328 -2.07625 -17.9899
ltibia 31.8136
lfoot -28.2082 -14.6247
ltoes 3.35895
216
root -31.6463 17.5658 -2.34668 -17.7582 84.7262 -26.01
lowerback 16.5147 0.48398 -6.82739
upperback 5.10289 -0.235503 -0.78703
thorax -3.75089 -0.0040448 3.06998
lowerneck -6.8449 -2.6696 2.39401
upperneck 4.06674 -4.13063 7.30142
head 2.61672 -1.73944 1.76695
rclavicle 8.34896e-015 1.59028e-015
rhumerus -49.8763 11.9859 -87.9044
rradius 43.3527
rwrist -1.61737
rhand -9.80742 -15.748
rfingers 7.12502
rthumb 16.1691 -45.0936
lclavicle 8.34896e-015 1.59028e-015
lhumerus -38.1284 -2.10585 73.9817
lradius 60.2226
lwrist 4.84307
lhand -7.38931 10.1223
lfingers 7.12502
lthumb 18.4964 39.2629
rfemur -24.209 5.44434 15.6122
rtibia 55.7175
rfoot -22.9267 16.5668
rtoes -18.7071
lfemur -8.76995 -2.07862 -18.0797
ltibia 31.0245
lfoot -27.5878 -14.8126
ltoes 3.09671
217
root -31.5352 17.5955 -2.3406 -16.972 84.821 -25.3154
lowerback 16.5064 0.396053 -6.82874
upperback 5.01589 -0.354714 -0.660768
thorax -3.82627 -0.0615333 3.22815
lowerneck -7.03173 -2.6559 2.53699
upperneck 4.39694 -4.14165 6.93247
head 2.74757 -1.74133 1.61896
rclavicle -1.07344e-014 5.56597e-015
rhumerus -50.038 12.0227 -87.8589
rradius 43.2416
rwrist -1.33802
rhand -9.18927 -15.7284
rfingers 7.12502
rthumb 16.7642 -45.0246
lclavicle -1.07344e-014 5.56597e-015
lhumerus -38.2212 -2.18395 74.0146
lradius 60.7818
lwrist 5.29453
lhand -7.73052 10.2965
lfingers 7.12502
lthumb 18.1681 39.468
rfemur -24.6832 5.59863 15.5425
rtibia 54.5609
rfoot -23.0893 16.5697
rtoes -18.5317
lfemur -8.13093 -2.07674 -18.1758
ltibia 30.2507
lfoot -26.9394 -14.9933
ltoes 2.79056
218
root -31.4222 17.6251 -2.33378 -16.1447 84.9239 -24.5993
lowerback 16.4739 0.303537 -6.82258
upperback 4.92716 -0.476776 -0.530941
thorax -3.88975 -0.120783 3.38644
lowerneck -7.20174 -2.63453 2.6838
upperneck 4.69466 -4.13614 6.52798
head 2.86353 -1.73862 1.45936
rclavicle 1.19271e-015 1.90833e-014
rhumerus -50.1841 12.0527 -87.7973
rradius 43.135
rwrist -1.11997
rhand -8.53361 -15.7282
rfingers 7.12502
rthumb 17.3953 -44.9698
lclavicle 1.19271e-015 1.90833e-014
lhumerus -38.3527 -2.2991 74.0572
lradius 61.3573
lwrist 5.76498
lhand -8.01848 10.4771
lfingers 7.12502
lthumb 17.8911 39.6742
rfemur -25.1374 5.77506 15.4739
rtibia 53.3042
rfoot -23.2347 16.4986
rtoes -18.3407
lfemur -7.5201 -2.07397 -18.2727
ltibia 29.4937
lfoot -26.2569 -15.1756
ltoes 2.45957
219
root -31.3072 17.6544 -2.3262 -15.3037 85.0375 -23.8896
lowerback 16.4279 0.204283 -6.79777
upperback 4.82922 -0.604437 -0.402496
thorax -3.95507 -0.18262 3.53381
lowerneck -7.35723 -2.60668 2.83144
upperneck 4.97237 -4.11676 6.09717
head 2.9698 -1.73184 1.29167
rclavicle -5.56597e-015 -4.05521e-014
rhumerus -50.3201 12.0566 -87.7194
rradius 43.0208
rwrist -0.951135
rhand -7.85497 -15.7299
rfingers 7.12502
rthumb 18.0484 -44.9125
lclavicle -5.56597e-015 -4.05521e-014
lhumerus -38.5281 -2.44983 74.1024
lradius 61.9408
lwrist 6.25073
lhand -8.26813 10.598
lfingers 7.12502
lthumb 17.6508 39.8169
rfemur -25.573 5.97952 15.4063
rtibia 51.955
rfoot -23.3614 16.3626
rtoes -18.0958
lfemur -6.94344 -2.08048 -18.3681
ltibia 28.7636
lfoot -25.5562 -15.3546
ltoes 2.08104
220
root -31.1904 17.6832 -2.31819 -14.4526 85.1547 -23.1912
lowerback 16.3642 0.100707 -6.74807
upperback 4.72298 -0.733179 -0.275505
thorax -4.01962 -0.244988 3.66562
lowerneck -7.49782 -2.57495 2.97813
upperneck 5.23137 -4.08694 5.64235
head 3.067 -1.72257 1.11684
rclavicle 3.97569e-016 3.97569e-015
rhumerus -50.4476 12.0329 -87.6233
rradius 42.9077
rwrist -0.840274
rhand -7.17212 -15.7536
rfingers 7.12502
rthumb 18.7053 -44.8743
lclavicle 3.97569e-016 3.97569e-015
lhumerus -38.739 -2.62922 74.1513
lradius 62.5199
lwrist 6.74654
lhand -8.44901 10.6896
lfingers 7.12502
lthumb 17.4768 39.924
rfemur -25.9935 6.22269 15.3391
rtibia 50.5244
rfoot -23.4824 16.1699
rtoes -17.8146
lfemur -6.40526 -2.10422 -18.4613
ltibia 28.0683
lfoot -24.8529 -15.5184
ltoes 1.61979
